<svg width="190" height="35" viewBox="0 0 190 35" fill="none" xmlns="http://www.w3.org/2000/svg">
<mask id="mask0_1_692" style="mask-type:luminance" maskUnits="userSpaceOnUse" x="0" y="0" width="190" height="35">
<path d="M189.653 0H0V34.2228H189.653V0Z" fill="white"/>
</mask>
<g mask="url(#mask0_1_692)">
<path d="M27.1769 34.2228H7.03086C3.15487 34.2228 0 31.068 0 27.1769V7.03086C0 3.15487 3.15487 0 7.03086 0H27.1769C31.068 0 34.2078 3.15487 34.2078 7.03086V27.1769C34.2228 31.068 31.068 34.2228 27.1769 34.2228Z" fill="#EF3346"/>
<path d="M12.1994 15.1578C12.1994 14.8724 12.0042 14.6771 11.7187 14.6771H8.38357C8.09813 14.6771 7.90283 14.8724 7.90283 15.1578V18.4779C7.90283 18.7634 8.09813 18.9587 8.38357 18.9587H11.7037C11.9892 18.9587 12.1844 18.7634 12.1844 18.4779V15.1578H12.1994Z" fill="#191E3B"/>
<path d="M19.5458 22.5198C19.5458 22.2344 19.3355 22.0391 19.0651 22.0391H15.745C15.4595 22.0391 15.2643 22.2344 15.2643 22.5198V25.8399C15.2643 26.1254 15.4595 26.3207 15.745 26.3207H19.0651C19.3506 26.3207 19.5458 26.1254 19.5458 25.8399V22.5198Z" fill="#191E3B"/>
<path d="M19.5458 15.1578C19.5458 14.8724 19.3506 14.6771 19.0651 14.6771H15.745C15.4595 14.6771 15.2643 14.8724 15.2643 15.1578V18.4779C15.2643 18.7634 15.4595 18.9587 15.745 18.9587H19.0651C19.3506 18.9587 19.5458 18.7634 19.5458 18.4779V15.1578Z" fill="#FDDB32"/>
<path d="M115.078 18.9291C115.559 15.5488 117.331 13.3405 120.846 13.3405C124.452 13.3405 126.36 15.4137 126.63 18.9291H115.078ZM120.937 10.0204C115.303 10.0204 110.811 14.0766 110.811 20.792C110.811 27.6726 114.777 31.8941 121.462 31.8941C125.308 31.8941 128.508 30.1965 130.491 27.8379C130.612 27.7177 130.656 27.5974 130.656 27.4773C130.656 27.3571 130.612 27.2369 130.491 27.1167L128.629 25.2989C128.508 25.1787 128.389 25.1337 128.268 25.1337C128.148 25.1337 128.028 25.2088 127.907 25.344C126.375 27.0115 124.377 28.4238 121.508 28.4238C117.316 28.4238 115.303 25.8397 114.987 22.099H130.537C130.822 22.099 131.017 21.8887 131.017 21.6183V20.807C131.017 14.6475 127.291 10.0204 120.937 10.0204Z" fill="#191E3B"/>
<path d="M67.1818 2.92932H63.8166C63.5312 2.92932 63.3359 3.13965 63.3359 3.41007V14.7526H49.6798V3.42509C49.6798 3.13965 49.4846 2.94435 49.1991 2.94435H45.8339C45.5485 2.94435 45.3531 3.15467 45.3531 3.42509V30.7974C45.3531 31.0827 45.5485 31.2781 45.8339 31.2781H49.1991C49.4846 31.2781 49.6798 31.0678 49.6798 30.7974V18.5685H63.3359V30.7974C63.3359 31.0827 63.5312 31.2781 63.8166 31.2781H67.1818C67.4673 31.2781 67.6626 31.0678 67.6626 30.7974V3.42509C67.6776 3.13965 67.4673 2.92932 67.1818 2.92932Z" fill="#191E3B"/>
<path d="M138.393 2.92932H135.148C134.863 2.92932 134.668 3.13965 134.668 3.41007V30.7974C134.668 31.0827 134.863 31.2781 135.148 31.2781H138.393C138.679 31.2781 138.874 31.0678 138.874 30.7974V3.42509C138.874 3.13965 138.663 2.92932 138.393 2.92932Z" fill="#191E3B"/>
<path d="M82.5095 28.3336C78.0176 28.3336 75.6289 24.9684 75.6289 20.9572C75.6289 16.9461 78.0176 13.5808 82.5095 13.5808C87.0015 13.5808 89.3901 16.9461 89.3901 20.9572C89.3901 24.9684 87.0015 28.3336 82.5095 28.3336ZM82.5095 10.0204C76.4702 10.0204 71.4073 14.4822 71.4073 20.9572C71.4073 27.4322 76.4702 31.8941 82.5095 31.8941C88.5488 31.8941 93.6119 27.4322 93.6119 20.9572C93.6119 14.4822 88.5338 10.0204 82.5095 10.0204Z" fill="#191E3B"/>
<path d="M108.333 10.6663H103.075V3.81579C103.075 3.45523 102.714 3.28998 102.474 3.53035L99.1991 6.80537C99.0043 7.0007 98.8684 7.21107 98.8684 7.52654V10.6663H95.2634C94.978 10.6663 94.7823 10.8617 94.7823 11.1471V13.4156C94.7823 13.7011 94.978 13.8964 95.2634 13.8964H98.8684V24.9534C98.8684 28.7994 100.687 31.2782 104.533 31.2782H108.333C108.619 31.2782 108.814 31.0829 108.814 30.7975V28.2135C108.814 27.928 108.619 27.7327 108.333 27.7327H105.66C103.752 27.7327 103.075 26.9966 103.075 25.1037V13.9113H108.333C108.619 13.9113 108.814 13.7161 108.814 13.4306V11.1621C108.829 10.8767 108.619 10.6663 108.333 10.6663Z" fill="#191E3B"/>
<path d="M163.003 29.5201H161.606C161.47 29.5201 161.365 29.6103 161.365 29.7605V31.0675C161.365 31.2027 161.456 31.3079 161.606 31.3079H163.003C163.138 31.3079 163.243 31.2178 163.243 31.0675V29.7605C163.243 29.6253 163.154 29.5201 163.003 29.5201Z" fill="#191E3B"/>
<path d="M175.607 30.181C174.299 30.181 173.638 29.2947 173.638 28.1229C173.638 26.9961 174.284 26.0647 175.607 26.0647C176.913 26.0647 177.575 26.9961 177.575 28.1229C177.559 29.2947 176.913 30.181 175.607 30.181ZM175.607 24.8178C173.788 24.8178 172.241 26.1698 172.241 28.1379C172.241 30.151 173.788 31.458 175.607 31.458C177.424 31.458 178.972 30.151 178.972 28.1379C178.972 26.1698 177.424 24.8178 175.607 24.8178Z" fill="#191E3B"/>
<path d="M151.794 18.9291C148.473 18.208 146.851 17.6371 146.851 15.9245C146.851 14.3019 148.308 13.3405 150.907 13.3405C153.221 13.3405 155.038 14.3921 156.21 16.0596C156.375 16.3 156.661 16.3451 156.901 16.1799L159.094 14.7677C159.335 14.6024 159.425 14.3621 159.26 14.0766C157.472 11.3574 154.648 10.0204 150.952 10.0204C146.821 10.0204 143.14 12.0484 143.14 16.1799C143.14 20.5216 146.581 21.6483 151.117 22.6248C154.317 23.3159 155.729 23.8416 155.729 25.7497C155.729 27.6125 154.061 28.589 151.267 28.589C148.353 28.589 146.49 27.4472 145.198 25.5543C145.033 25.2689 144.748 25.1938 144.462 25.3891L142.269 26.9064C142.028 27.0717 141.984 27.312 142.103 27.5524C143.756 30.3468 146.836 31.9242 151.222 31.9242C156.691 31.9242 159.846 29.2049 159.846 25.5694C159.846 21.3178 156.33 19.9507 151.794 18.9291Z" fill="#191E3B"/>
<path d="M187.311 24.8178C186.379 24.8178 185.763 25.1933 185.252 25.7943C184.921 25.2384 184.23 24.8178 183.389 24.8178C182.502 24.8178 181.947 25.2384 181.616 25.7041V25.2384C181.616 25.1032 181.527 24.998 181.376 24.998H180.445C180.309 24.998 180.204 25.0882 180.204 25.2384V31.0825C180.204 31.2176 180.295 31.3228 180.445 31.3228H181.421C181.557 31.3228 181.662 31.2327 181.662 31.0825V28.0478C181.662 26.876 181.992 26.0797 183.013 26.0797C183.9 26.0797 184.186 26.5905 184.186 27.4318V31.0674C184.186 31.2026 184.276 31.3078 184.426 31.3078H185.403C185.538 31.3078 185.643 31.2176 185.643 31.0674V28.0327C185.643 26.8609 186.019 26.0647 187.04 26.0647C187.881 26.0647 188.212 26.5754 188.212 27.4167V31.0524C188.212 31.1876 188.302 31.2928 188.452 31.2928H189.429C189.564 31.2928 189.669 31.2026 189.669 31.0524V27.2215C189.639 25.7943 188.753 24.8178 187.311 24.8178Z" fill="#191E3B"/>
<path d="M170.693 29.2051C170.558 29.0698 170.407 29.1149 170.318 29.2051C169.672 29.9111 169.236 30.1816 168.545 30.1816C167.373 30.1816 166.772 29.2952 166.772 28.1234C166.772 26.9966 167.283 26.0652 168.499 26.0652C169.296 26.0652 169.716 26.3957 170.137 26.8615C170.227 26.9516 170.378 26.9966 170.513 26.9065L171.069 26.4408C171.204 26.3507 171.309 26.2004 171.158 26.0202C170.648 25.314 169.761 24.8032 168.499 24.8032C166.577 24.8032 165.329 26.1103 165.329 28.1234C165.329 30.1365 166.591 31.4886 168.454 31.4886C169.761 31.4886 170.693 30.9327 171.309 30.0914C171.399 29.9562 171.399 29.851 171.309 29.7609L170.693 29.2051Z" fill="#191E3B"/>
<path d="M28.0645 8.3524C28.0645 7.13557 27.088 6.159 25.8711 6.159H9.51084C9.18034 6.159 8.98503 6.27922 8.78973 6.4895L5.49965 9.76457C5.25928 10.0049 5.42453 10.3806 5.78509 10.3806H23.843V28.4384C23.843 28.799 24.2035 28.9642 24.4589 28.7239L27.749 25.4488C27.9594 25.2385 28.0645 25.0432 28.0645 24.7127V8.3524Z" fill="#191E3B"/>
</g>
</svg>
