<svg width="137" height="35" viewBox="0 0 137 35" fill="none" xmlns="http://www.w3.org/2000/svg">
<path d="M136.891 14.0591C134.682 14.0591 133.086 14.6141 131.981 16.464V14.3674H129.526V28.7965H131.981V21.1503C131.981 17.8205 133.393 16.5256 136.891 16.5256V14.0591ZM120.135 16.4023C122.651 16.4023 124.186 17.9439 124.493 20.1021H115.716C116.084 17.9439 117.68 16.4023 120.135 16.4023ZM103.501 26.7616C100.862 26.7616 98.7136 24.6651 98.7136 21.582C98.7136 18.4988 100.862 16.4023 103.501 16.4023C106.14 16.4023 108.289 18.4988 108.289 21.582C108.289 24.6651 106.14 26.7616 103.501 26.7616ZM71.3386 26.7616C68.6993 26.7616 66.551 24.6651 66.551 21.582C66.551 18.4988 68.6993 16.4023 71.3386 16.4023C73.9779 16.4023 76.1261 18.4988 76.1261 21.582C76.1261 24.6651 73.9779 26.7616 71.3386 26.7616ZM120.135 14.0591C115.716 14.0591 112.954 17.3889 112.954 21.582C112.954 26.0217 116.023 29.1048 120.319 29.1048C124.063 29.1048 125.966 27.0699 126.825 25.8367L124.861 24.2951C124.002 25.5284 122.651 26.7616 120.319 26.7616C117.802 26.7616 115.777 25.1584 115.593 22.3836H127.132C127.193 22.1986 127.193 21.8903 127.193 21.582C127.193 17.4506 124.616 14.0591 120.135 14.0591ZM87.7882 14.0591C85.4558 14.0591 84.1054 15.2307 83.4916 16.279V14.3674H81.0365V28.7965H83.4916V20.842C83.4916 17.9439 84.9647 16.4023 87.4199 16.4023C89.875 16.4023 91.3481 18.0672 91.3481 20.842V28.7965H93.8033V20.3487C93.8033 16.094 91.2254 14.0591 87.7882 14.0591ZM71.3386 14.0591C67.042 14.0591 63.9731 17.4506 63.9731 21.582C63.9731 25.7134 67.042 29.1048 71.3386 29.1048C75.6351 29.1048 78.7041 25.7134 78.7041 21.582C78.7041 17.4506 75.6351 14.0591 71.3386 14.0591ZM55.0118 16.7106C53.6 16.1556 52.1269 15.6007 52.1269 13.8125C52.1269 12.0859 53.4773 11.0376 55.7483 11.0376C57.7124 11.0376 59.0628 12.0242 60.229 13.0725L61.8862 11.0376C60.72 9.98937 58.6945 8.57112 55.6869 8.57112C51.82 8.57112 49.4263 10.9143 49.4263 14.1824C49.4263 17.2039 51.5131 18.4372 53.9683 19.3004L55.5028 19.8554C58.0193 20.7803 59.3083 21.4586 59.3083 23.3702C59.3083 25.2201 57.6511 26.6383 55.38 26.6383C52.4338 26.6383 50.8994 24.8501 49.8559 23.9868L48.0759 26.145C49.1194 27.0083 51.2676 29.1048 55.4414 29.1048C59.431 29.1048 62.009 26.4533 62.009 23.0619C62.009 19.5471 59.7379 18.4988 56.3007 17.2039L55.0118 16.7106ZM108.289 16.5256C107.184 14.984 105.527 14.0591 103.256 14.0591C98.9591 14.0591 96.1357 17.4506 96.1357 21.582C96.1357 25.7134 98.9591 29.1048 103.256 29.1048C105.527 29.1048 107.184 28.1799 108.289 26.6383V28.7965H110.621L110.744 8.26281H108.289V16.5256ZM9.46852 28.3032C7.99543 28.3032 6.64509 28.4882 5.17199 28.9815L10.0209 23.1852C10.3892 24.9734 11.0644 26.885 12.2306 28.6115C11.3713 28.4265 10.3278 28.3032 9.46852 28.3032ZM21.9898 31.9413C16.2816 31.9413 12.1692 26.2683 12.1692 20.657L22.8491 7.89283C22.7878 8.20115 22.7878 8.57112 22.7878 8.75611C22.7878 11.2843 24.0153 13.7508 25.4884 16.1556L26.9615 18.5605C28.3119 20.7187 29.3553 23.0002 29.3553 25.0967C29.3553 28.6115 26.4091 31.9413 21.9898 31.9413ZM32.2401 8.81777C31.8719 9.18775 31.8105 9.68105 32.056 10.1127L33.5905 12.7642C34.9408 15.1074 36.2298 17.5739 36.2298 20.472C36.2298 24.9734 33.4677 28.3649 29.3553 30.708C30.9512 28.8582 31.6263 27.0083 31.6263 25.0967C31.6263 22.3836 30.3988 19.8554 28.8643 17.3272L27.2071 14.5524C25.9795 12.5175 25.0588 10.5443 25.0588 8.50946C25.0588 5.11801 27.5753 2.28152 31.8105 2.28152C34.0201 2.28152 36.1684 3.02147 37.5187 4.68637C36.0456 5.42632 33.6519 7.27621 32.2401 8.81777ZM31.8105 0C27.8209 0 25.0588 1.66489 21.6216 5.7963L0.261669 31.3247C-0.290742 32.003 0.0775323 32.6196 0.936839 32.3113L1.85752 32.003C4.5582 31.078 6.76784 30.708 8.67059 30.708C14.9926 30.708 16.0975 34.2228 22.9719 34.2228C31.6263 34.2228 38.5008 28.6732 38.5008 20.3487C38.5008 17.5122 37.7643 15.354 35.7387 11.9626L34.3884 9.74271C36.2298 8.01616 37.887 6.90623 40.158 5.7963C40.7104 5.54965 40.8946 5.05635 40.5263 4.50138C38.4394 1.66489 35.8001 0 31.8105 0Z" fill="#00464B"/>
</svg>
