<svg width="78" height="42" viewBox="0 0 78 42" fill="none" xmlns="http://www.w3.org/2000/svg">
<mask id="mask0_1_684" style="mask-type:luminance" maskUnits="userSpaceOnUse" x="0" y="0" width="78" height="42">
<path d="M77.8864 0H0V41.8279H77.8864V0Z" fill="white"/>
</mask>
<g mask="url(#mask0_1_684)">
<path d="M20.7083 5.73966C21.1426 6.17399 21.3443 6.68588 21.3443 7.27533C21.3443 7.91133 21.1271 8.42322 20.7083 8.85758C20.2739 9.29187 19.762 9.49358 19.1725 9.49358C18.5365 9.49358 18.0247 9.27636 17.5904 8.85758C17.156 8.42322 16.9544 7.91133 16.9544 7.27533C16.9544 6.67037 17.1715 6.15848 17.5904 5.69312C18.0247 5.25878 18.5365 5.05713 19.1725 5.05713C19.762 5.05713 20.2894 5.27429 20.7083 5.73966ZM48.4126 7.97335C48.4126 8.48524 48.5833 8.88859 48.9245 9.22985C49.2658 9.57111 49.6691 9.74173 50.181 9.74173C50.6619 9.74173 51.0652 9.57111 51.4064 9.22985C51.7477 8.88859 51.9184 8.48524 51.9184 7.97335C51.9184 7.49248 51.7477 7.0892 51.4064 6.74793C51.0652 6.37564 50.6619 6.20501 50.181 6.20501C50.0879 6.20501 50.0104 6.20501 49.9173 6.22053C48.3661 3.94026 45.667 1.83064 41.3857 0.775823C35.4756 -0.682304 27.2388 0.21739 19.5604 4.54523C20.1188 4.63831 20.5997 4.90201 21.0185 5.36737C21.3598 5.70863 21.5924 6.09643 21.7165 6.53077C28.9606 2.15639 36.2357 0.791336 42.0838 2.12536C45.636 2.93199 47.2647 4.09539 48.9245 5.66209C48.7694 5.86375 49.0021 5.56902 48.8935 5.77067C47.4664 4.3746 45.4188 3.13364 42.5957 2.51316C36.8252 1.22567 28.6039 2.45112 21.8096 7.33735C21.8096 7.53906 21.7941 7.7252 21.7631 7.91133C28.5418 2.97852 36.6701 1.44283 42.4871 2.71482C45.6515 3.41286 47.8542 4.80893 49.2969 6.42218C49.1572 6.49974 49.0176 6.59281 48.909 6.71691C48.5833 7.0892 48.4126 7.50805 48.4126 7.97335ZM14.9999 11.0292C12.7816 11.0292 11.308 11.2154 9.81882 11.7118C9.27592 11.8979 9.07428 12.1306 9.07428 12.4564V24.1058C9.07428 24.3695 9.40003 24.7263 9.66377 24.7263H12.4869C12.7506 24.7263 12.7972 24.3695 12.7972 24.1058V14.3178C13.2625 14.2247 14.2552 14.1782 14.9223 14.1782C15.3721 14.1782 15.5893 13.992 15.5893 13.7283V11.4791C15.5893 11.1534 15.2791 11.0292 14.9999 11.0292ZM20.8634 11.8514C20.8634 11.5876 20.6617 11.386 20.398 11.386H17.6059C17.3421 11.386 17.1405 11.5876 17.1405 11.8514V24.2609C17.1405 24.5247 17.3421 24.7263 17.6059 24.7263H20.398C20.6617 24.7263 20.8634 24.5247 20.8634 24.2609V11.8514ZM77.6375 12.2702V24.6488C77.6375 28.0148 75.9312 29.3178 72.0684 29.3178C70.0674 29.3178 68.4231 28.9611 67.5855 28.6818C67.2597 28.5578 67.0891 28.4182 67.0891 28.0769V26.5102C67.0891 26.2775 67.3838 26.2775 67.6475 26.2775H67.694C68.7488 26.2775 70.9515 26.4637 72.0684 26.4637C73.6819 26.4637 73.9141 25.9983 73.9141 24.6488V24.385C73.4489 24.4781 72.5179 24.6022 71.9909 24.6022C68.0508 24.6022 66.1583 22.2599 66.1583 18.5991V17.0168C66.1583 13.2319 68.2835 11.0447 72.0684 11.0447C73.8679 11.0447 75.6514 11.3085 76.9545 11.6342C77.5596 11.7738 77.6375 11.8979 77.6375 12.2702ZM73.9141 14.3178C73.4489 14.2402 72.7357 14.1471 71.9753 14.1471C70.3155 14.1471 69.8812 15.3416 69.8812 17.0013V18.5836C69.8812 20.2123 70.3155 21.4843 71.9753 21.4843C72.5338 21.4843 73.4489 21.4222 73.9141 21.3447V14.3178ZM7.04221 11.6962H3.80021V9.18333C3.80021 8.95061 3.73816 8.90409 3.5365 8.90409H3.47446L0.620251 8.79549C0.356547 8.84207 0.0773315 8.9041 0.0773315 9.15232V21.05C0.0773315 23.9973 1.65955 24.7884 4.20352 24.7884C5.18077 24.7884 6.26661 24.6953 6.91811 24.5867C7.21287 24.5402 7.36799 24.385 7.36799 24.1369V22.384C7.36799 22.1358 7.27489 22.0893 6.98016 22.0893H5.27384C4.29659 22.0893 3.80021 21.8721 3.80021 21.081V14.4884H7.04221C7.29039 14.4884 7.36799 14.1316 7.36799 13.8834V12.053C7.36799 11.8049 7.29039 11.6962 7.04221 11.6962ZM46.7684 17.0168V18.8317C46.7684 22.4926 44.8604 24.8039 40.9204 24.8039C40.455 24.8039 39.6329 24.7263 39.0124 24.6333V28.6818C39.0124 28.9456 38.9814 29.3799 38.7176 29.3799H35.8945C35.6307 29.3799 35.2895 28.9456 35.2895 28.6818V12.3167C35.2895 11.9445 35.4291 11.7738 36.0651 11.6342C37.3991 11.3085 39.1675 11.0292 40.9669 11.0292C44.7518 11.0292 46.7684 13.2319 46.7684 17.0168ZM43.0455 17.0168C43.0455 15.3571 42.6112 14.1627 40.9514 14.1627C40.1758 14.1627 39.4778 14.2092 39.0124 14.2868V21.5774C39.6329 21.655 40.3929 21.717 40.9514 21.717C42.6112 21.717 43.0455 20.476 43.0455 18.8472V17.0168ZM52.0424 11.8514C52.0424 11.5876 51.8408 11.386 51.5771 11.386H48.7849C48.5212 11.386 48.3196 11.5876 48.3196 11.8514V24.2609C48.3196 24.5247 48.5212 24.7263 48.7849 24.7263H51.5771C51.8408 24.7263 52.0424 24.5247 52.0424 24.2609V11.8514ZM34.0486 17.0168V18.8317C34.0486 22.4926 32.1406 24.8039 28.2005 24.8039C27.7352 24.8039 27.0681 24.7263 26.2926 24.6333V28.6818C26.2926 28.9456 26.2771 29.3799 26.0134 29.3799H23.1902C22.9265 29.3799 22.5697 28.9456 22.5697 28.6818V12.3167C22.5697 11.9445 22.7093 11.7738 23.3453 11.6342C24.6793 11.3085 26.4632 11.0292 28.2626 11.0292C32.032 11.0292 34.0486 13.2319 34.0486 17.0168ZM30.3257 17.0168C30.3257 15.3571 29.8914 14.1627 28.2315 14.1627C27.456 14.1627 26.7579 14.2092 26.2926 14.2868V21.5774C26.913 21.655 27.6731 21.717 28.2315 21.717C29.8914 21.717 30.3257 20.476 30.3257 18.8472V17.0168ZM59.9535 11.2309H58.7901C55.4241 11.2309 53.4385 12.658 53.4385 15.8844V24.1058C53.4385 24.3695 53.8108 24.7263 54.0745 24.7263H56.9442C57.208 24.7263 57.3165 24.3695 57.3165 24.1058V15.8844C57.3165 14.8607 57.5802 14.3333 58.7901 14.3333H59.9535C61.1635 14.3333 61.1945 14.8607 61.1945 15.8844V24.1058C61.1945 24.3695 61.5513 24.7263 61.7995 24.7263H64.6847C64.9484 24.7263 64.9174 24.3695 64.9174 24.1058V15.8844C64.9174 12.6735 63.3197 11.2309 59.9535 11.2309Z" fill="#FF7A20"/>
<path d="M14.3311 38.8269C15.0554 38.8269 15.6313 38.2509 15.6313 37.5267C15.6313 36.8111 15.0554 36.2352 14.3311 36.2352C13.5894 36.2352 13.0309 36.7937 13.0309 37.5267C13.0309 38.2684 13.5894 38.8269 14.3311 38.8269ZM12.0536 39.6646V33.5563H13.0222V36.1654C13.3276 35.6244 13.8512 35.3102 14.5405 35.3102C15.6837 35.3102 16.5825 36.2963 16.5825 37.5267C16.5825 38.757 15.6837 39.7518 14.5405 39.7518C13.8512 39.7518 13.3276 39.4377 13.0222 38.8967V39.6646H12.0536ZM17.5165 40.4412C17.8655 40.4412 18.0313 40.3103 18.2146 39.9002L18.4153 39.4464L16.7224 35.3975H17.7695L18.9126 38.3033L20.0558 35.3975H21.1029L19.0697 40.2667C18.8516 40.7728 18.4763 41.3574 17.7084 41.3574H17.1238V40.4412H17.5165ZM27.6658 33.5563H28.6867V39.6646H27.6658V36.9856H24.7076V39.6646H23.6866V33.5563H24.7076V36.0083H27.6658V33.5563ZM31.7599 35.3102C33.0077 35.3102 33.9763 36.2701 33.9763 37.5354C33.9763 38.792 33.0077 39.7518 31.7599 39.7518C30.512 39.7518 29.5521 38.792 29.5521 37.5354C29.5521 36.2701 30.512 35.3102 31.7599 35.3102ZM30.4946 37.5354C30.4946 38.2597 31.0443 38.8181 31.7599 38.8181C32.4667 38.8181 33.0339 38.2597 33.0339 37.5354C33.0339 36.8024 32.4667 36.2352 31.7599 36.2352C31.0443 36.2352 30.4946 36.8024 30.4946 37.5354ZM41.4823 37.0554V39.6646H40.4963V37.2736C40.4963 36.6366 40.1472 36.2439 39.5713 36.2439C39.0914 36.2439 38.6201 36.5493 38.6201 37.2736V39.6646H37.6428V37.2736C37.6428 36.6279 37.285 36.2439 36.7091 36.2439C36.2728 36.2439 35.8365 36.497 35.7667 37.1078V39.6646H34.7894V35.3975H35.7667V35.9909C36.0808 35.476 36.6131 35.3102 37.0582 35.3102C37.6777 35.3102 38.114 35.5458 38.3758 36.0607C38.6201 35.5982 39.1524 35.3102 39.7371 35.3102C40.7668 35.3102 41.4823 35.9821 41.4823 37.0554ZM44.491 39.7518C43.1908 39.7518 42.292 38.7832 42.292 37.5092C42.292 36.2701 43.2693 35.3102 44.4997 35.3102C45.6516 35.3102 46.5765 36.1916 46.5765 37.3696C46.5765 37.5267 46.5678 37.6576 46.5504 37.7797H43.2431C43.3479 38.4778 43.8191 38.8967 44.5172 38.8967C45.032 38.8967 45.3811 38.6698 45.5818 38.3207L46.3497 38.8094C46.0181 39.3941 45.3723 39.7518 44.491 39.7518ZM43.2693 37.0467H45.5905C45.5119 36.5144 45.0495 36.1479 44.4648 36.1479C43.854 36.1479 43.4177 36.4882 43.2693 37.0467ZM49.0558 39.6646H48.0349V34.5336H46.1588V33.5563H50.932V34.5336H49.0558V39.6646ZM52.689 35.3102C53.9369 35.3102 54.9055 36.2701 54.9055 37.5354C54.9055 38.792 53.9369 39.7518 52.689 39.7518C51.4412 39.7518 50.4813 38.792 50.4813 37.5354C50.4813 36.2701 51.4412 35.3102 52.689 35.3102ZM51.4237 37.5354C51.4237 38.2597 51.9735 38.8181 52.689 38.8181C53.3959 38.8181 53.9631 38.2597 53.9631 37.5354C53.9631 36.8024 53.3959 36.2352 52.689 36.2352C51.9735 36.2352 51.4237 36.8024 51.4237 37.5354ZM58.6331 39.7518C56.8791 39.7518 55.5527 38.3906 55.5527 36.6017C55.5527 34.8215 56.8878 33.469 58.6331 33.469C59.8373 33.469 60.8844 34.0886 61.2073 34.9873L60.2998 35.4324C60.0293 34.8477 59.401 34.4638 58.6331 34.4638C57.4812 34.4638 56.6086 35.3887 56.6086 36.6017C56.6086 37.8233 57.4812 38.7571 58.7029 38.7571C59.6628 38.7571 60.4045 38.1288 60.5616 37.2212H58.6505V36.2439H61.5563C61.5825 36.3923 61.6 36.6366 61.6 36.8198C61.6 38.5389 60.3172 39.7518 58.6331 39.7518ZM64.466 35.3102C65.7138 35.3102 66.6824 36.2701 66.6824 37.5354C66.6824 38.792 65.7138 39.7518 64.466 39.7518C63.2181 39.7518 62.2582 38.792 62.2582 37.5354C62.2582 36.2701 63.2181 35.3102 64.466 35.3102ZM63.2007 37.5354C63.2007 38.2597 63.7504 38.8181 64.466 38.8181C65.1728 38.8181 65.74 38.2597 65.74 37.5354C65.74 36.8024 65.1728 36.2352 64.466 36.2352C63.7504 36.2352 63.2007 36.8024 63.2007 37.5354Z" fill="#FF7A20"/>
</g>
</svg>
